<svg width="41" height="43" viewBox="0 0 41 43" fill="none" xmlns="http://www.w3.org/2000/svg">
<g filter="url(#filter0_ddd_137_3965)">
<rect x="5.15234" y="5.5" width="30" height="30" rx="10" fill="white"/>
<path d="M26.9044 5.5H14.0927C8.52768 5.5 5.21008 8.755 5.21008 14.215V26.77C5.21008 32.245 8.52768 35.5 14.0927 35.5H26.8891C32.4541 35.5 35.7717 32.245 35.7717 26.785V14.215C35.787 8.755 32.4694 5.5 26.9044 5.5ZM29.1977 23.575C29.1365 23.71 29.0601 23.83 28.9531 23.935L24.443 28.36C24.2136 28.585 23.9232 28.69 23.6327 28.69C23.3422 28.69 23.0517 28.585 22.8224 28.36C22.379 27.925 22.379 27.205 22.8224 26.77L25.3756 24.265H12.8543C12.2275 24.265 11.7077 23.755 11.7077 23.14C11.7077 22.525 12.2275 22.015 12.8543 22.015H28.1428C28.2957 22.015 28.4333 22.045 28.5861 22.105C28.8613 22.225 29.0907 22.435 29.213 22.72C29.32 22.99 29.32 23.29 29.1977 23.575ZM28.1428 18.985H12.8543C12.7014 18.985 12.5638 18.955 12.4109 18.895C12.1358 18.775 11.9064 18.565 11.7841 18.28C11.6618 18.01 11.6618 17.695 11.7841 17.425C11.8606 17.29 11.937 17.17 12.044 17.065L16.5541 12.64C16.9975 12.205 17.7313 12.205 18.1747 12.64C18.6181 13.075 18.6181 13.795 18.1747 14.23L15.6215 16.735H28.1428C28.7696 16.735 29.2894 17.245 29.2894 17.86C29.2894 18.475 28.7696 18.985 28.1428 18.985Z" fill="#FF6363"/>
</g>
<defs>
<filter id="filter0_ddd_137_3965" x="-2.84766" y="-2.9" width="46.6923" height="48.4" filterUnits="userSpaceOnUse" color-interpolation-filters="sRGB">
<feFlood flood-opacity="0" result="BackgroundImageFix"/>
<feColorMatrix in="SourceAlpha" type="matrix" values="0 0 0 0 0 0 0 0 0 0 0 0 0 0 0 0 0 0 127 0" result="hardAlpha"/>
<feOffset dy="0.4"/>
<feGaussianBlur stdDeviation="0.40625"/>
<feColorMatrix type="matrix" values="0 0 0 0 0 0 0 0 0 0 0 0 0 0 0 0 0 0 0.03 0"/>
<feBlend mode="normal" in2="BackgroundImageFix" result="effect1_dropShadow_137_3965"/>
<feColorMatrix in="SourceAlpha" type="matrix" values="0 0 0 0 0 0 0 0 0 0 0 0 0 0 0 0 0 0 127 0" result="hardAlpha"/>
<feOffset dy="2"/>
<feGaussianBlur stdDeviation="2.5"/>
<feColorMatrix type="matrix" values="0 0 0 0 0 0 0 0 0 0 0 0 0 0 0 0 0 0 0.06 0"/>
<feBlend mode="normal" in2="effect1_dropShadow_137_3965" result="effect2_dropShadow_137_3965"/>
<feColorMatrix in="SourceAlpha" type="matrix" values="0 0 0 0 0 0 0 0 0 0 0 0 0 0 0 0 0 0 127 0" result="hardAlpha"/>
<feOffset dy="-0.4"/>
<feGaussianBlur stdDeviation="2.5"/>
<feComposite in2="hardAlpha" operator="out"/>
<feColorMatrix type="matrix" values="0 0 0 0 0 0 0 0 0 0 0 0 0 0 0 0 0 0 0.06 0"/>
<feBlend mode="normal" in2="effect2_dropShadow_137_3965" result="effect3_dropShadow_137_3965"/>
<feBlend mode="normal" in="SourceGraphic" in2="effect3_dropShadow_137_3965" result="shape"/>
</filter>
</defs>
</svg>
