<svg width="25" height="24" viewBox="0 0 25 24" fill="none" xmlns="http://www.w3.org/2000/svg">
<path d="M12.5 16.33C10.11 16.33 8.17001 14.39 8.17001 12C8.17001 9.61001 10.11 7.67001 12.5 7.67001C14.89 7.67001 16.83 9.61001 16.83 12C16.83 14.39 14.89 16.33 12.5 16.33ZM12.5 9.17001C10.94 9.17001 9.67001 10.44 9.67001 12C9.67001 13.56 10.94 14.83 12.5 14.83C14.06 14.83 15.33 13.56 15.33 12C15.33 10.44 14.06 9.17001 12.5 9.17001Z" fill="#3D3D3D"/>
<path d="M12.5 21.02C8.73999 21.02 5.18999 18.82 2.74999 15C1.68999 13.35 1.68999 10.66 2.74999 9.00001C5.19999 5.18001 8.74999 2.98001 12.5 2.98001C16.25 2.98001 19.8 5.18001 22.24 9.00001C23.3 10.65 23.3 13.34 22.24 15C19.8 18.82 16.25 21.02 12.5 21.02ZM12.5 4.48001C9.26999 4.48001 6.17999 6.42001 4.01999 9.81001C3.26999 10.98 3.26999 13.02 4.01999 14.19C6.17999 17.58 9.26999 19.52 12.5 19.52C15.73 19.52 18.82 17.58 20.98 14.19C21.73 13.02 21.73 10.98 20.98 9.81001C18.82 6.42001 15.73 4.48001 12.5 4.48001Z" fill="#3D3D3D"/>
</svg>
