<svg width="48" height="49" viewBox="0 0 48 49" fill="none" xmlns="http://www.w3.org/2000/svg">
<path d="M18.375 44.75C27.6948 44.75 35.25 37.1948 35.25 27.875C35.25 18.5552 27.6948 11 18.375 11C9.05519 11 1.5 18.5552 1.5 27.875C1.5 37.1948 9.05519 44.75 18.375 44.75Z" fill="#FFDED5"/>
<path d="M3.375 35C4.41053 35 5.25 34.1605 5.25 33.125C5.25 32.0895 4.41053 31.25 3.375 31.25C2.33947 31.25 1.5 32.0895 1.5 33.125C1.5 34.1605 2.33947 35 3.375 35Z" stroke="#4C241D" stroke-width="2" stroke-linecap="round" stroke-linejoin="round"/>
<path d="M7.52013 19.9999L6.71463 20.4027C6.55761 20.4807 6.41751 20.589 6.30236 20.7212C6.18721 20.8535 6.09925 21.0071 6.04353 21.1734C5.9878 21.3397 5.9654 21.5153 5.9776 21.6902C5.9898 21.8652 6.03637 22.036 6.11463 22.1929L10.1886 30.3409C10.31 30.5836 10.3545 30.8575 10.3161 31.1262L10.1069 32.5902C10.0799 32.7794 10.0939 32.9723 10.148 33.1557C10.202 33.3392 10.2948 33.5088 10.4201 33.6532C10.5454 33.7977 10.7003 33.9135 10.8743 33.9929C11.0482 34.0723 11.2372 34.1134 11.4284 34.1134C11.6919 34.1132 11.9495 34.0349 12.1686 33.8884L14.4104 32.3937C14.6296 32.2474 14.8871 32.1692 15.1506 32.1687H16.3266C16.6806 32.1685 17.0199 32.0277 17.2701 31.7774C17.5203 31.527 17.6609 31.1876 17.6609 30.8337V30.5884C17.6611 30.2346 17.8017 29.8953 18.0519 29.6452C18.3021 29.395 18.6413 29.2544 18.9951 29.2542H25.8509C26.0261 29.254 26.1997 29.2885 26.3616 29.3555C26.5235 29.4226 26.6706 29.5209 26.7944 29.6449L29.3249 32.1717V33.1467H31.1999C31.4976 33.1467 31.7867 33.2463 32.0213 33.4294C32.256 33.6126 32.4228 33.8689 32.4951 34.1576L32.9609 36.9927C33.0335 37.2795 33.1994 37.5341 33.4325 37.7165C33.6656 37.8988 33.9527 37.9985 34.2486 37.9999H36.2676C36.5155 37.9998 36.7585 37.9307 36.9694 37.8004C37.1803 37.67 37.3507 37.4836 37.4616 37.2619L37.6949 36.7947C37.8058 36.573 37.9763 36.3867 38.1872 36.2565C38.3981 36.1263 38.641 36.0573 38.8889 36.0574H40.2036C40.6829 36.0574 41.1246 34.8289 41.3624 34.4134L44.7561 28.4734C44.8276 28.3489 44.8782 28.2137 44.9061 28.0729L45.7371 23.9187C45.8002 23.6026 45.7469 23.2745 45.5871 22.9947L42.2024 17.0749C42.0389 16.7912 41.7767 16.5776 41.4659 16.4749L39.8451 15.9349C39.6033 15.8542 39.3897 15.7059 39.2296 15.5076C39.0694 15.3093 38.9694 15.0693 38.9414 14.8159L38.6301 12.0147C38.6055 11.7932 38.5258 11.5815 38.3983 11.3987C38.2708 11.216 38.0997 11.068 37.9004 10.9684L37.3446 10.6909C37.1229 10.58 36.9365 10.4095 36.8062 10.1987C36.6758 9.98778 36.6067 9.7448 36.6066 9.4969V7.3999H35.6354L33.3569 11.1972C33.1839 11.4856 32.9084 11.6981 32.5855 11.7921C32.2626 11.8861 31.9161 11.8547 31.6154 11.7042L29.8709 10.8319C29.5836 10.6883 29.3577 10.4458 29.2347 10.1491C29.1116 9.85235 29.0997 9.5212 29.2011 9.2164L29.2214 9.1564C29.2881 8.9558 29.3063 8.74222 29.2743 8.53323C29.2424 8.32424 29.1613 8.12583 29.0377 7.95432C28.9141 7.78281 28.7515 7.64311 28.5633 7.54673C28.3752 7.45034 28.1668 7.40002 27.9554 7.3999H24.8054C24.5575 7.4 24.3145 7.46909 24.1036 7.59942C23.8928 7.72976 23.7223 7.91621 23.6114 8.1379L22.5164 10.3279C22.3806 10.5993 22.1564 10.8164 21.8807 10.9433C21.6051 11.0703 21.2944 11.0995 20.9999 11.0262L19.0341 10.5349C18.7742 10.4698 18.5006 10.4845 18.2491 10.5771C17.9976 10.6696 17.7799 10.8358 17.6241 11.0539L13.4849 16.8447C13.3585 17.0218 13.1906 17.1653 12.9959 17.2624L10.8111 18.3552" fill="#FF6363"/>
<path d="M7.52013 19.9999L6.71463 20.4027C6.55761 20.4807 6.41751 20.589 6.30236 20.7212C6.18721 20.8535 6.09925 21.0071 6.04353 21.1734C5.9878 21.3397 5.9654 21.5153 5.9776 21.6902C5.9898 21.8652 6.03637 22.036 6.11463 22.1929L10.1886 30.3409C10.31 30.5836 10.3545 30.8575 10.3161 31.1262L10.1069 32.5902C10.0799 32.7794 10.0939 32.9723 10.148 33.1557C10.202 33.3392 10.2948 33.5088 10.4201 33.6532C10.5454 33.7977 10.7003 33.9135 10.8743 33.9929C11.0482 34.0723 11.2372 34.1134 11.4284 34.1134V34.1134C11.6919 34.1132 11.9495 34.0349 12.1686 33.8884L14.4104 32.3937C14.6296 32.2474 14.8871 32.1692 15.1506 32.1687H16.3266C16.6806 32.1685 17.0199 32.0277 17.2701 31.7774C17.5203 31.527 17.6609 31.1876 17.6609 30.8337V30.5884C17.6611 30.2346 17.8017 29.8953 18.0519 29.6452C18.3021 29.395 18.6413 29.2544 18.9951 29.2542H25.8509C26.0261 29.254 26.1997 29.2885 26.3616 29.3555C26.5235 29.4226 26.6706 29.5209 26.7944 29.6449L29.3249 32.1717V33.1467H31.1999C31.4976 33.1467 31.7867 33.2463 32.0213 33.4294C32.256 33.6126 32.4228 33.8689 32.4951 34.1577L32.9609 36.9927C33.0335 37.2795 33.1994 37.5341 33.4325 37.7165C33.6656 37.8988 33.9527 37.9985 34.2486 37.9999H36.2676C36.5155 37.9998 36.7585 37.9307 36.9694 37.8004C37.1803 37.67 37.3507 37.4836 37.4616 37.2619L37.6949 36.7947C37.8058 36.573 37.9763 36.3867 38.1872 36.2565C38.3981 36.1263 38.641 36.0573 38.8889 36.0574H40.2036C40.6829 36.0574 41.1246 34.8289 41.3624 34.4134L44.7561 28.4734C44.8276 28.3489 44.8782 28.2137 44.9061 28.0729L45.7371 23.9187C45.8002 23.6026 45.7469 23.2745 45.5871 22.9947L42.2024 17.0749C42.0389 16.7912 41.7767 16.5776 41.4659 16.4749L39.8451 15.9349C39.6033 15.8542 39.3897 15.7059 39.2296 15.5076C39.0694 15.3093 38.9694 15.0693 38.9414 14.8159L38.6301 12.0147C38.6055 11.7932 38.5258 11.5815 38.3983 11.3987C38.2708 11.216 38.0997 11.068 37.9004 10.9684L37.3446 10.6909C37.1229 10.58 36.9365 10.4095 36.8062 10.1987C36.6758 9.98778 36.6067 9.7448 36.6066 9.4969V7.3999H35.6354L33.3569 11.1972C33.1839 11.4856 32.9084 11.6981 32.5855 11.7921C32.2626 11.8861 31.9161 11.8547 31.6154 11.7042L29.8709 10.8319C29.5836 10.6883 29.3577 10.4458 29.2347 10.1491C29.1116 9.85235 29.0997 9.5212 29.2011 9.2164L29.2214 9.1564C29.2881 8.9558 29.3063 8.74222 29.2743 8.53323C29.2424 8.32424 29.1613 8.12583 29.0377 7.95432C28.9141 7.78281 28.7515 7.64311 28.5633 7.54673C28.3752 7.45034 28.1668 7.40002 27.9554 7.3999H24.8054C24.5575 7.4 24.3145 7.46909 24.1036 7.59942C23.8928 7.72976 23.7223 7.91621 23.6114 8.1379L22.5164 10.3279C22.3806 10.5993 22.1564 10.8164 21.8807 10.9433C21.6051 11.0703 21.2944 11.0995 20.9999 11.0262L19.0341 10.5349C18.7742 10.4698 18.5006 10.4845 18.2491 10.5771C17.9976 10.6696 17.7799 10.8358 17.6241 11.0539L13.4849 16.8447C13.3585 17.0218 13.1906 17.1653 12.9959 17.2624L10.8111 18.3552" stroke="#4C241D" stroke-width="2" stroke-linecap="round" stroke-linejoin="round"/>
<path d="M14.8049 40.292C15.2477 40.292 15.6067 39.933 15.6067 39.4902C15.6067 39.0474 15.2477 38.6885 14.8049 38.6885C14.3621 38.6885 14.0032 39.0474 14.0032 39.4902C14.0032 39.933 14.3621 40.292 14.8049 40.292Z" fill="#4C241D"/>
<path d="M23.25 38V39.5" stroke="#4C241D" stroke-width="2" stroke-linecap="round" stroke-linejoin="round"/>
<path d="M23.25 42.5V44" stroke="#4C241D" stroke-width="2" stroke-linecap="round" stroke-linejoin="round"/>
<path d="M20.25 41H21.75" stroke="#4C241D" stroke-width="2" stroke-linecap="round" stroke-linejoin="round"/>
<path d="M24.75 41H26.25" stroke="#4C241D" stroke-width="2" stroke-linecap="round" stroke-linejoin="round"/>
<path d="M33.8249 41H36.6749C36.7615 40.9999 36.8467 41.022 36.9224 41.0641C36.998 41.1063 37.0617 41.1671 37.1072 41.2407C37.1528 41.3144 37.1787 41.3985 37.1826 41.485C37.1865 41.5715 37.1682 41.6576 37.1294 41.735L35.9999 44.75L33.3674 41.735C33.3285 41.6573 33.3102 41.571 33.3143 41.4842C33.3183 41.3975 33.3445 41.3132 33.3904 41.2394C33.4363 41.1657 33.5004 41.105 33.5764 41.063C33.6525 41.0211 33.7381 40.9994 33.8249 41Z" fill="#FFCE56" stroke="#4C241D" stroke-width="2" stroke-linecap="round" stroke-linejoin="round"/>
<path d="M11.8358 4.49463C10.2762 4.51381 8.78796 5.15157 7.69841 6.26771C6.60886 7.38384 6.00714 8.88697 6.02556 10.4466C6.02556 13.7339 11.8358 21.5001 11.8358 21.5001C11.8358 21.5001 17.6461 13.7339 17.6461 10.4466C17.6647 8.88691 17.063 7.38366 15.9734 6.26749C14.8838 5.15131 13.3955 4.51361 11.8358 4.49463ZM11.8358 13.4594C11.2368 13.4741 10.647 13.31 10.1418 12.988C9.63652 12.6659 9.23874 12.2005 8.99925 11.6513C8.75976 11.1021 8.68943 10.4939 8.79725 9.90454C8.90506 9.31515 9.18613 8.77128 9.60454 8.3424C10.023 7.91353 10.5597 7.61911 11.1463 7.49678C11.7328 7.37444 12.3425 7.42973 12.8975 7.65558C13.4525 7.88144 13.9275 8.26761 14.2619 8.76475C14.5964 9.2619 14.775 9.84746 14.7751 10.4466C14.7845 11.2358 14.4802 11.9964 13.929 12.5614C13.3779 13.1263 12.625 13.4493 11.8358 13.4594Z" fill="#F96E43" stroke="#4C241D" stroke-width="2" stroke-linecap="round" stroke-linejoin="round"/>
<path d="M35.8358 17.2446C34.2762 17.2638 32.788 17.9016 31.6984 19.0177C30.6089 20.1338 30.0071 21.637 30.0256 23.1966C30.0256 26.4839 35.8358 34.2501 35.8358 34.2501C35.8358 34.2501 41.6461 26.4839 41.6461 23.1966C41.6647 21.6369 41.063 20.1337 39.9734 19.0175C38.8838 17.9013 37.3955 17.2636 35.8358 17.2446ZM35.8358 26.2094C35.2368 26.2241 34.647 26.06 34.1418 25.738C33.6365 25.4159 33.2387 24.9505 32.9992 24.4013C32.7598 23.8521 32.6894 23.2439 32.7972 22.6545C32.9051 22.0651 33.1861 21.5213 33.6045 21.0924C34.023 20.6635 34.5597 20.3691 35.1463 20.2468C35.7328 20.1244 36.3425 20.1797 36.8975 20.4056C37.4525 20.6314 37.9275 21.0176 38.2619 21.5148C38.5964 22.0119 38.775 22.5975 38.7751 23.1966C38.7845 23.9858 38.4802 24.7464 37.929 25.3114C37.3779 25.8763 36.625 26.1993 35.8358 26.2094Z" fill="#A9BA5A" stroke="#4C241D" stroke-width="2" stroke-linecap="round" stroke-linejoin="round"/>
</svg>
